<?xml version="1.0" encoding="UTF-8"?>
<svg version="1.1" xmlns="http://www.w3.org/2000/svg" width="1254" height="1254">
<path d="M0 0 C413.82 0 827.64 0 1254 0 C1254 413.82 1254 827.64 1254 1254 C840.18 1254 426.36 1254 0 1254 C0 840.18 0 426.36 0 0 Z " fill="#000000" transform="translate(0,0)"/>
<path d="M0 0 C0.39787469 20.00146341 0.69726023 40.00211962 0.88080692 60.00672531 C0.96831476 69.2963598 1.08750662 78.58353002 1.2824707 87.87158203 C1.45240999 95.9713485 1.56170015 104.06933034 1.59950441 112.17083001 C1.62159402 116.45809275 1.67311556 120.74025263 1.79741096 125.02587128 C2.52336225 151.04742082 2.52336225 151.04742082 -1.64617348 157.57855606 C-5.49770392 161.57040267 -9.8219522 163.98915296 -14.91423893 166.08503914 C-18.06743841 167.46825323 -20.64388573 169.37723063 -23.42578125 171.3984375 C-25.38721036 172.72515733 -27.34945095 174.05067826 -29.3125 175.375 C-37.94001786 181.21781509 -46.51653219 187.12519442 -55.04101562 193.1171875 C-60.57875523 197.00929922 -66.14226575 200.8607561 -71.72631836 204.68603516 C-77.5466549 208.67765811 -83.33579423 212.71340558 -89.125 216.75 C-99.50057819 223.97990517 -109.93714113 231.11691639 -120.39501953 238.22705078 C-125.2799782 241.55175274 -130.15510137 244.89082017 -135.03051758 248.22949219 C-138.91899608 250.89219704 -142.80899218 253.55260062 -146.703125 256.20703125 C-154.73755378 261.68754088 -162.73694041 267.21093347 -170.6875 272.8125 C-178.14627968 278.06624199 -185.70354139 283.15409155 -193.3125 288.1875 C-200.45390653 292.91444433 -207.4870383 297.71742409 -214.34326172 302.84838867 C-222.49466712 308.91620541 -230.9693644 314.52716233 -239.38183594 320.22363281 C-243.11899401 322.75921302 -246.84226725 325.31467728 -250.5625 327.875 C-251.19679932 328.31046143 -251.83109863 328.74592285 -252.48461914 329.19458008 C-255.60252651 331.33760737 -258.70914684 333.49499664 -261.80078125 335.67578125 C-262.40398193 336.09939941 -263.00718262 336.52301758 -263.62866211 336.95947266 C-265.26284327 338.10863122 -266.89328195 339.26310669 -268.5234375 340.41796875 C-271 342 -271 342 -273 342 C-273 375.33 -273 408.66 -273 443 C-299.73 443 -326.46 443 -354 443 C-354.33 431.3675 -354.66 419.735 -355 407.75 C-355.14566406 404.1003418 -355.29132813 400.45068359 -355.44140625 396.69042969 C-356.01263931 372.29951423 -356.01263931 372.29951423 -350.67260742 366.24511719 C-347.39625384 363.45451175 -343.86956429 361.53914759 -339.92474365 359.85192871 C-337.41978918 358.74318749 -335.38675889 357.23342745 -333.23828125 355.546875 C-331.93031764 354.61369948 -330.62173337 353.68139322 -329.3125 352.75 C-321.606356 347.22919312 -314.06681328 341.50673797 -306.54516602 335.73803711 C-301.67145755 332.00869649 -296.76834651 328.34471728 -291.75 324.8125 C-285.12621544 320.14997512 -278.71277074 315.23105525 -272.29296875 310.29296875 C-268.19705269 307.14404254 -264.07361547 304.03336745 -259.9375 300.9375 C-259.27790283 300.44362793 -258.61830566 299.94975586 -257.9387207 299.44091797 C-255.32160315 297.48248708 -252.70332535 295.52561106 -250.08496094 293.56884766 C-241.91886494 287.46415723 -233.78770259 281.31692494 -225.6875 275.125 C-218.9454402 269.97182548 -212.16098015 264.885807 -205.3125 259.875 C-198.29478792 254.73809886 -191.39864173 249.46587668 -184.55126953 244.10449219 C-179.16752771 239.89317828 -173.72793633 235.7659452 -168.24926758 231.67919922 C-162.63780346 227.48972877 -157.06597068 223.24967692 -151.5 219 C-145.26966768 214.24413668 -139.02790253 209.50540699 -132.75 204.8125 C-125.99601125 199.7620597 -119.29110088 194.64984528 -112.59765625 189.51953125 C-109.21451195 186.92715497 -105.82547065 184.34265882 -102.43359375 181.76171875 C-101.48959717 181.04338867 -100.54560059 180.32505859 -99.57299805 179.58496094 C-97.72976166 178.18280689 -95.88618937 176.78109427 -94.04223633 175.37988281 C-93.19814209 174.73760742 -92.35404785 174.09533203 -91.484375 173.43359375 C-90.30391602 172.53616455 -90.30391602 172.53616455 -89.09960938 171.62060547 C-87.37860781 170.2922324 -85.69186213 168.9195877 -84.015625 167.53515625 C-82 166 -82 166 -80 166 C-80.01751407 165.45022649 -80.03502813 164.90045298 -80.05307293 164.33401966 C-80.4742541 150.90337714 -80.78660051 137.47390278 -80.98443127 124.03805256 C-81.08334752 117.53970066 -81.21731457 111.04613402 -81.43334961 104.55053711 C-81.64078932 98.27363389 -81.75358492 92.00131039 -81.80266762 85.7212429 C-81.83760824 83.33371021 -81.90585687 80.94641152 -82.00887108 78.56084633 C-82.76306571 60.36094415 -82.76306571 60.36094415 -78.1411171 54.73888779 C-73.62279624 50.73306317 -68.61437355 47.86479094 -63.23552895 45.17194176 C-60.20989052 43.58579723 -57.67803152 41.67827984 -55 39.5625 C-54.07574219 38.85867188 -53.15148437 38.15484375 -52.19921875 37.4296875 C-51.70341309 37.05166992 -51.20760742 36.67365234 -50.69677734 36.28417969 C-40.26620287 28.38996074 -29.67431906 20.71547359 -18.95825195 13.21459961 C-13.58609762 9.44467798 -8.33402383 5.53857261 -3.125 1.546875 C-1 0 -1 0 0 0 Z " fill="#F70180" transform="translate(839,222)"/>
<path d="M0 0 C27.06 0 54.12 0 82 0 C82.39722206 32.00964725 82.72940848 64.01689285 82.91917593 96.0282651 C82.94168722 99.81189787 82.96498516 103.59552542 82.98876953 107.37915039 C82.99349112 108.13236589 82.99821271 108.88558139 83.00307737 109.66162161 C83.08129112 121.83982446 83.22314622 134.01648966 83.38875033 146.19378188 C83.55739691 158.69959583 83.65712297 171.20460759 83.69359291 183.71151191 C83.71823052 191.42298042 83.79585923 199.1301031 83.9424964 206.84023247 C84.04938159 212.76390327 84.06011788 218.68537457 84.03593826 224.61003494 C84.04087339 227.03174452 84.07646409 229.45362486 84.14569855 231.87434959 C84.62883314 249.64478239 84.62883314 249.64478239 80.26225042 255.21791482 C76.05950179 259.16620591 71.36858433 262.04090189 66.2957809 264.73646414 C62.71997478 266.70449134 59.44085322 269.06593457 56.125 271.4375 C54.80678493 272.33970486 53.4879854 273.2410581 52.16796875 274.140625 C47.56669276 277.28811348 43.00170988 280.48659646 38.4375 283.6875 C37.61580322 284.26266357 36.79410645 284.83782715 35.94750977 285.43041992 C31.22214982 288.73830766 26.50322505 292.05507899 21.7890625 295.37890625 C19.71365246 296.83609532 17.63813372 298.29312957 15.5625 299.75 C14.09671509 300.7877356 14.09671509 300.7877356 12.60131836 301.84643555 C11.68229736 302.49008057 10.76327637 303.13372559 9.81640625 303.796875 C8.60126343 304.65297363 8.60126343 304.65297363 7.36157227 305.52636719 C5 307 5 307 0 309 C0 207.03 0 105.06 0 0 Z " fill="#FBFBFB" transform="translate(484,243)"/>
<path d="M0 0 C0 73.26 0 146.52 0 222 C-26.4 222 -52.8 222 -80 222 C-80.48363641 179.73107333 -80.48363641 179.73107333 -80.5859375 162.00976562 C-80.65712668 149.77615964 -80.74078344 137.54354585 -80.90527344 125.31079102 C-81.02501901 116.40131932 -81.10233012 107.49265288 -81.12906194 98.58239883 C-81.14468537 93.86554405 -81.18129475 89.15099249 -81.26876068 84.4348774 C-81.35050381 79.99113649 -81.37528679 75.55063587 -81.35729218 71.10621452 C-81.36058131 69.4795199 -81.38429556 67.85271191 -81.4304657 66.22666931 C-81.7613724 53.96649929 -81.7613724 53.96649929 -77.36779022 49.06124687 C-74.45003835 46.68250425 -71.29510876 44.81735204 -68 43 C-66.75516763 42.19487203 -65.51345489 41.38486085 -64.27734375 40.56640625 C-63.17519531 39.90511719 -62.07304688 39.24382812 -60.9375 38.5625 C-53.47501559 34.00515079 -46.20072651 29.17837789 -38.9375 24.3125 C-36.61493576 22.75858732 -34.29192638 21.20534107 -31.96875 19.65234375 C-31.3914917 19.26644577 -30.8142334 18.88054779 -30.21948242 18.48295593 C-24.14156842 14.42235935 -18.04745586 10.38725455 -11.9375 6.375 C-10.96224365 5.72958252 -9.9869873 5.08416504 -8.98217773 4.41918945 C-7.64328491 3.54266724 -7.64328491 3.54266724 -6.27734375 2.6484375 C-5.10546509 1.87765869 -5.10546509 1.87765869 -3.90991211 1.09130859 C-2 0 -2 0 0 0 Z " fill="#F8017A" transform="translate(839,443)"/>
<path d="M0 0 C0.89554596 -0.00540298 1.79109192 -0.01080597 2.71377563 -0.01637268 C5.64603701 -0.02878321 8.57730174 -0.01242159 11.50952148 0.00561523 C13.56257681 0.00546008 15.61563244 0.00396841 17.66868591 0.00120544 C21.95975786 -0.00017507 26.25049415 0.01232244 30.54150391 0.03515625 C36.02793795 0.06355752 41.51381554 0.06079388 47.00029087 0.04806614 C51.23578096 0.04109538 55.47114355 0.04891393 59.70661736 0.06132317 C61.72912036 0.06582281 63.75163712 0.06618753 65.77414131 0.06225777 C68.60491914 0.05933137 71.43494276 0.07592004 74.265625 0.09765625 C75.09234207 0.0931546 75.91905914 0.08865295 76.77082825 0.08401489 C84.86216859 0.18669396 90.99592043 2.68209946 97.56811523 7.50170898 C98.41374023 8.01733398 99.25936523 8.53295898 100.13061523 9.06420898 C106.92674878 15.86034253 108.14735814 24.32222059 108.23719788 33.5798645 C108.22492946 34.95226067 108.21150942 36.32464695 108.19702148 37.69702148 C108.19785255 39.13947732 108.20032087 40.58193304 108.20433044 42.02438354 C108.20716921 45.02835028 108.19267518 48.03156344 108.16503906 51.03540039 C108.13089637 54.86284723 108.13701271 58.68895437 108.15570164 62.51646614 C108.16632659 65.4884638 108.15728551 68.46015578 108.14231682 71.43212509 C108.13717885 72.84254928 108.13756279 74.25300597 108.14386177 75.66342545 C108.176046 87.19180971 106.41448652 95.21856592 98.50561523 103.77514648 C92.01118342 109.56252322 84.88496743 110.65304484 76.45019531 110.67871094 C75.04966919 110.68856773 75.04966919 110.68856773 73.62084961 110.69862366 C70.52644776 110.71835676 67.43209447 110.73002018 64.33764648 110.73999023 C63.28022436 110.74406576 62.22280224 110.74814129 61.13333702 110.75234032 C55.53501963 110.7732025 49.93672676 110.78750281 44.33837891 110.796875 C38.56255123 110.80793125 32.78710967 110.84232198 27.01141834 110.8820467 C22.56492915 110.90822403 18.11853174 110.91656792 13.67197227 110.92015648 C11.54337651 110.92502062 9.41478479 110.93662963 7.28626442 110.95519447 C4.30153684 110.97960599 1.31780517 110.97861685 -1.66699219 110.97167969 C-2.54053848 110.98448975 -3.41408478 110.9972998 -4.31410217 111.01049805 C-12.90052005 110.93803816 -19.35965425 107.5739395 -25.43188477 101.50170898 C-29.41685191 95.3950161 -31.54408359 90.42440377 -31.62475586 83.07763672 C-31.63293335 82.43001877 -31.64111084 81.78240082 -31.64953613 81.11515808 C-31.67434301 78.97188218 -31.69089988 76.82867265 -31.70532227 74.68530273 C-31.71064594 73.95032122 -31.71596962 73.2153397 -31.72145462 72.45808601 C-31.7481743 68.56272552 -31.76754716 64.66739683 -31.78198242 60.77197266 C-31.79528244 57.56237031 -31.8230622 54.35340967 -31.86401367 51.14404297 C-31.91360885 47.25661745 -31.93813666 43.36977062 -31.9452095 39.48204231 C-31.95188061 38.0081761 -31.96699353 36.53432068 -31.99110031 35.06063652 C-32.14322908 25.1924615 -31.43761028 16.96072816 -24.50033569 9.39524841 C-17.49055319 2.57786525 -9.63737915 -0.1129801 0 0 Z " fill="#F8F8F8" transform="translate(675.431884765625,744.498291015625)"/>
<path d="M0 0 C21 0 21 0 26.6875 4 C28.14479748 5.64938415 29.58318623 7.31571298 31 9 C32.50804545 10.29036237 34.05126262 11.54062546 35.625 12.75 C40.03626105 16.22784374 44.39813091 19.76094496 48.75 23.3125 C53.85354025 27.47280576 58.99238431 31.57973074 64.1875 35.625 C69.27071585 39.58632863 74.21172913 43.68405258 79.10620117 47.87548828 C83.55383009 51.66657849 88.12999547 55.27152117 92.74536133 58.85522461 C97.54847985 62.60204728 102.20909782 66.49944115 106.82617188 70.47265625 C109.15613898 72.47232151 111.44007583 74.29338389 114 76 C114.33 50.92 114.66 25.84 115 0 C122.59 0 130.18 0 138 0 C138 36.3 138 72.6 138 110 C114.63263946 110 114.63263946 110 109.66845703 105.47924805 C109.07661621 104.84672119 108.48477539 104.21419434 107.875 103.5625 C106.49488297 102.26813181 105.11467468 100.97386091 103.734375 99.6796875 C103.09693359 99.04643555 102.45949219 98.41318359 101.80273438 97.76074219 C99.36897768 95.38367646 96.78953901 93.30257192 94.125 91.1875 C93.26519531 90.48496094 92.40539062 89.78242187 91.51953125 89.05859375 C90.68808594 88.37925781 89.85664063 87.69992187 89 87 C88.15824219 86.31035156 87.31648438 85.62070312 86.44921875 84.91015625 C80.97684411 80.42686265 75.49188834 75.95934647 70 71.5 C62.80004268 65.65372231 55.61857403 59.78525333 48.4453125 53.90625 C40.31524634 47.24779819 32.15622865 40.62693578 24 34 C23.67 59.41 23.34 84.82 23 111 C15.41 111 7.82 111 0 111 C0 74.37 0 37.74 0 0 Z " fill="#F6F6F6" transform="translate(240,745)"/>
<path d="M0 0 C21 0 21 0 26.125 3.4375 C27.43139733 4.94569854 28.72262166 6.467146 30 8 C31.76100971 9.51553563 33.55482326 10.99356091 35.375 12.4375 C36.7671875 13.56865234 36.7671875 13.56865234 38.1875 14.72265625 C39.115625 15.47417969 40.04375 16.22570312 41 17 C46.27051009 21.28228945 51.52224212 25.58060301 56.68798828 29.98876953 C62.27490788 34.75620709 67.95818124 39.35973137 73.7578125 43.86572266 C77.85971494 47.06662258 81.85678473 50.37049498 85.8125 53.75 C90.77137021 57.98470607 95.82546067 62.03049038 101 66 C105.62 69.63 110.24 73.26 115 77 C115 51.59 115 26.18 115 0 C122.26 0 129.52 0 137 0 C137 36.3 137 72.6 137 110 C114.8924956 110 114.8924956 110 109.33203125 104.46875 C108.56246094 103.6540625 107.79289063 102.839375 107 102 C104.93208562 100.20510438 102.85440816 98.43791009 100.75 96.6875 C99.63537364 95.73963392 98.52079077 94.79171671 97.40625 93.84375 C93.52030754 90.57278467 89.52199728 87.45407686 85.51269531 84.33666992 C80.03047149 80.05942143 74.67732548 75.6333337 69.32397461 71.1965332 C64.87355564 67.51716406 60.37425679 63.915073 55.8125 60.375 C50.39877618 56.1690603 45.17517322 51.77717771 39.9921875 47.29101562 C34.1981486 42.28227357 28.37894109 37.2526274 22 33 C22 58.41 22 83.82 22 110 C14.74 110 7.48 110 0 110 C0 73.7 0 37.4 0 0 Z " fill="#FAF9FA" transform="translate(442,745)"/>
<path d="M0 0 C1.18873718 -0.01073296 1.18873718 -0.01073296 2.40148926 -0.02168274 C5.01304312 -0.038549 7.62287523 -0.01918068 10.234375 0.00219727 C12.05371238 0.00136837 13.87304968 -0.00109179 15.69238281 -0.00511169 C19.5021829 -0.00796826 23.31139463 0.00671751 27.12109375 0.03417969 C32.00051696 0.0682624 36.87888825 0.06224302 41.75836182 0.04351711 C45.51424908 0.03294018 49.26989226 0.04189121 53.02575684 0.05690193 C54.82465896 0.06207913 56.62358663 0.06160755 58.42248535 0.05535698 C60.93846292 0.0498963 63.45294314 0.07030566 65.96875 0.09765625 C66.70967896 0.09113037 67.45060791 0.08460449 68.21398926 0.07788086 C73.07220458 0.16752329 75.57498952 1.17187839 78.984375 4.63110352 C80.25324939 7.16885229 80.1390881 8.98650942 80.17724609 11.82763672 C80.19330902 12.91248856 80.20937195 13.99734039 80.22592163 15.11506653 C80.27030103 20.07865837 80.31143326 25.04211564 80.33447266 30.00585938 C80.35104082 32.62574135 80.37834169 35.24557797 80.41650391 37.86523438 C80.47119441 41.63769034 80.49313571 45.40908606 80.5078125 49.18188477 C80.53048187 50.35286209 80.55315125 51.52383942 80.57650757 52.7303009 C80.55294119 61.77891432 80.55294119 61.77891432 77.57666016 64.84667969 C73.41228078 67.71326934 70.4432628 67.79523604 65.50878906 67.82397461 C64.73784912 67.8321521 63.96690918 67.84032959 63.17260742 67.84875488 C60.61507954 67.87361577 58.05760724 67.89012777 55.5 67.90454102 C54.1900771 67.91252653 54.1900771 67.91252653 52.8536911 67.92067337 C48.23026914 67.94740964 43.60687421 67.96678186 38.98339844 67.98120117 C34.21049894 67.99783855 29.43829134 68.04260695 24.66565323 68.09357262 C20.9938682 68.12725194 17.32224714 68.13877939 13.65032196 68.14442825 C11.89126048 68.15114026 10.13220977 68.1663611 8.37329865 68.19031906 C5.90747487 68.22198582 3.4435133 68.2220057 0.97753906 68.21459961 C0.25419373 68.23100494 -0.46915161 68.24741028 -1.2144165 68.26431274 C-4.93951055 68.21864203 -7.51198331 67.64993754 -10.46766663 65.45217896 C-13.34548882 62.26588141 -13.76862104 61.12132408 -13.77612305 56.91040039 C-13.79180832 55.78573364 -13.80749359 54.66106689 -13.82365417 53.50231934 C-13.80837173 52.29700562 -13.79308929 51.09169189 -13.77734375 49.84985352 C-13.78071243 48.60361206 -13.78408112 47.35737061 -13.78755188 46.07336426 C-13.78717666 42.766972 -13.75812687 39.46229421 -13.71905518 36.15618896 C-13.70313673 34.13259517 -13.70865031 32.11026666 -13.72241211 30.08666992 C-13.74736405 26.194642 -13.73718979 22.30436965 -13.71484375 18.41235352 C-13.72182785 17.20703979 -13.72881195 16.00172607 -13.73600769 14.7598877 C-13.7170192 13.63522095 -13.6980307 12.5105542 -13.6784668 11.35180664 C-13.67147263 10.36539185 -13.66447845 9.37897705 -13.65727234 8.3626709 C-11.94149294 1.05839835 -6.68519621 -0.10549547 0 0 Z " fill="#030202" transform="translate(680.015625,766.368896484375)"/>
<path d="M0 0 C0.90540527 0.14924927 0.90540527 0.14924927 1.82910156 0.30151367 C2.33957031 1.23608398 2.85003906 2.1706543 3.37597656 3.13354492 C7.99595773 11.51057663 12.87606125 19.66628849 18.02661133 27.72729492 C22.11464572 34.1354608 26.08126271 40.61111264 30.01660156 47.11401367 C34.41019236 54.36610667 38.87328425 61.55073907 43.49316406 68.66088867 C47.05829119 74.18007047 50.48442339 79.7871299 53.93359375 85.37915039 C56.56915189 89.65161897 59.21082505 93.9195079 61.88378906 98.16870117 C62.35115479 98.91200684 62.81852051 99.6553125 63.30004883 100.42114258 C64.17629252 101.81260799 65.05430852 103.20295933 65.93432617 104.59204102 C68.82910156 109.19187492 68.82910156 109.19187492 68.82910156 110.30151367 C64.70474571 110.62540593 60.58537512 110.85975307 56.45117188 111.015625 C55.04947016 111.08061416 53.64863732 111.16906767 52.25 111.28222656 C47.57181386 111.65094237 43.38707142 111.65183164 38.82910156 110.30151367 C35.52377363 106.99618574 33.62602922 103.33337054 31.70385742 99.14205933 C30.30025615 96.18878707 28.582326 93.43353826 26.89160156 90.63745117 C25.88491939 88.91464381 24.87826381 87.19182003 23.8734436 85.46792603 C22.04317069 82.32836698 20.20750924 79.19196075 18.37207031 76.05541992 C17.99745163 75.41507309 17.62283295 74.77472626 17.23686218 74.11497498 C13.2284028 67.26751976 9.18846234 60.43882468 5.14160156 53.61401367 C4.49513672 52.52330566 3.84867188 51.43259766 3.18261719 50.30883789 C2.56708984 49.27130371 1.9515625 48.23376953 1.31738281 47.16479492 C0.73424316 46.18075684 0.15110352 45.19671875 -0.44970703 44.18286133 C-1.6081678 42.2435487 -2.7780116 40.31099553 -3.95849609 38.38500977 C-4.50940918 37.48476074 -5.06032227 36.58451172 -5.62792969 35.65698242 C-6.1188208 34.86316162 -6.60971191 34.06934082 -7.11547852 33.25146484 C-8.17089844 31.30151367 -8.17089844 31.30151367 -8.17089844 29.30151367 C-8.83089844 29.30151367 -9.49089844 29.30151367 -10.17089844 29.30151367 C-10.50154297 30.26250977 -10.50154297 30.26250977 -10.83886719 31.24291992 C-12.68276857 35.47686357 -15.078316 39.30300597 -17.48339844 43.23901367 C-18.57522887 45.04198469 -19.66635016 46.8453853 -20.75683594 48.64916992 C-21.6032666 50.0473999 -21.6032666 50.0473999 -22.46679688 51.47387695 C-25.20929319 56.02453488 -27.90985854 60.59969491 -30.60839844 65.17651367 C-31.14327881 66.08312744 -31.67815918 66.98974121 -32.22924805 67.92382812 C-33.32081821 69.7742264 -34.41220725 71.62473153 -35.50341797 73.4753418 C-37.2122837 76.37165654 -38.92362614 79.26649424 -40.63574219 82.16088867 C-41.20687744 83.12655762 -41.7780127 84.09222656 -42.36645508 85.0871582 C-43.44225701 86.90596566 -44.51824855 88.72466099 -45.59448242 90.54321289 C-46.09149658 91.38384277 -46.58851074 92.22447266 -47.10058594 93.09057617 C-47.61000732 93.92073242 -48.11942871 94.75088867 -48.64428711 95.60620117 C-50.26270049 98.34441829 -50.26270049 98.34441829 -51.56665039 101.59057617 C-53.15229981 105.04111208 -54.50867559 107.58361696 -57.17089844 110.30151367 C-62.38153426 111.77158717 -67.28738057 111.44644509 -72.60839844 111.05151367 C-74.02158301 110.99124717 -75.43501468 110.93650675 -76.84863281 110.88745117 C-80.29456441 110.7558926 -83.73114786 110.54936637 -87.17089844 110.30151367 C-83.18526956 102.79184525 -78.91363102 95.54024947 -74.35839844 88.36401367 C-68.759406 79.47322149 -63.23872884 70.53857831 -57.79589844 61.55151367 C-57.44438721 60.97145569 -57.09287598 60.39139771 -56.73071289 59.79376221 C-53.83961011 55.02238675 -50.95258585 50.24854809 -48.06622314 45.4743042 C-47.32624971 44.25040336 -46.5861526 43.0265773 -45.84593201 41.80282593 C-45.10865721 40.58359027 -44.37188903 39.36404811 -43.63563538 38.14419556 C-41.83440598 35.16298687 -40.02217433 32.18969376 -38.18383789 29.23120117 C-34.95877125 24.02510328 -31.87658764 18.84027749 -29.20996094 13.32104492 C-22.18423704 -0.6156157 -15.3038318 -2.1893873 0 0 Z " fill="#F40176" transform="translate(1084.1708984375,744.698486328125)"/>
<path d="M0 0 C9.23174795 -1.84674147 18.9777122 -3.31366771 28 0 C35.3933482 6.66135905 39.2456213 16.40439595 43.28466797 25.32519531 C45.4959 30.16341746 48.23299919 34.62777385 51.0625 39.125 C52.0049696 40.68007484 52.94368842 42.23742821 53.87890625 43.796875 C54.36633301 44.60705078 54.85375977 45.41722656 55.35595703 46.25195312 C57.29913121 49.5000031 59.22706741 52.75694983 61.15234375 56.015625 C61.69182396 56.92832657 61.69182396 56.92832657 62.24220276 57.85946655 C64.02053252 60.86871822 65.79688838 63.8791119 67.57055664 66.89111328 C68.21758545 67.98665527 68.86461426 69.08219727 69.53125 70.2109375 C70.10423828 71.18337402 70.67722656 72.15581055 71.26757812 73.15771484 C73.10087726 76.16550352 75.0276701 79.08201028 77 82 C79.78161077 78.65107706 82.13704815 75.27911735 84.328125 71.51953125 C85.26869751 69.91609863 85.26869751 69.91609863 86.22827148 68.28027344 C86.55737518 67.71562378 86.88647888 67.15097412 87.22555542 66.56921387 C88.99102655 63.54179035 90.77037798 60.52256595 92.55078125 57.50390625 C92.91708145 56.88264862 93.28338165 56.26139099 93.66078186 55.62130737 C98.16132739 48.00759559 102.81501388 40.49001183 107.46728516 32.96826172 C111.71452833 26.09918506 115.90416926 19.20185418 120.0078125 12.24609375 C120.66523437 11.17488281 121.32265625 10.10367188 122 9 C122.35819824 8.21520264 122.71639648 7.43040527 123.08544922 6.62182617 C124.49940318 3.89269693 125.68326814 2.03390366 128 0 C132.66612076 -1.11186386 137.11234819 -0.85272409 141.875 -0.5625 C143.13570312 -0.52189453 144.39640625 -0.48128906 145.6953125 -0.43945312 C148.80081685 -0.33358366 151.89842503 -0.18586574 155 0 C153.79476608 3.19002045 152.48175652 6.04014371 150.63671875 8.90625 C150.1687085 9.6391626 149.70069824 10.3720752 149.21850586 11.12719727 C148.71327393 11.91022217 148.20804199 12.69324707 147.6875 13.5 C146.59811243 15.20649154 145.50960182 16.91354316 144.421875 18.62109375 C143.57592773 19.94729736 143.57592773 19.94729736 142.71289062 21.30029297 C139.92112502 25.70042752 137.17723514 30.12984044 134.4375 34.5625 C133.6187439 35.88640747 133.6187439 35.88640747 132.78344727 37.23706055 C129.37812293 42.75061189 125.99631564 48.27811121 122.625 53.8125 C113.29097605 69.12366475 103.73814389 84.30037608 94.125 99.4375 C93.22334106 100.8591748 93.22334106 100.8591748 92.3034668 102.30957031 C91.75215088 103.17549805 91.20083496 104.04142578 90.6328125 104.93359375 C90.14699707 105.69728271 89.66118164 106.46097168 89.16064453 107.24780273 C87.30880944 110.04347384 86.17337617 110.34459224 82.90625 111.08203125 C76.97769898 112.07114471 71.5983126 112.49184217 66 110 C59.20340678 103.34662217 55.16031617 94.11711223 50.91845703 85.71435547 C48.24532051 80.45971456 45.12596959 75.4940415 42 70.5 C40.85935899 68.63310878 39.72137686 66.76459066 38.5859375 64.89453125 C38.00811523 63.94529785 37.43029297 62.99606445 36.83496094 62.01806641 C34.85867582 58.76755594 32.8858984 55.51492902 30.9140625 52.26171875 C29.84387729 50.49657053 28.77365 48.73144784 27.70339966 46.96633911 C26.98763609 45.78567458 26.27203807 44.60490967 25.55661011 43.42404175 C21.54482128 36.80345957 17.51262874 30.1965883 13.43359375 23.6171875 C13.06395508 23.02015518 12.69431641 22.42312286 12.31347656 21.80799866 C10.54736031 18.95572384 8.77745414 16.10604188 7.00048828 13.26049805 C6.37255371 12.24769775 5.74461914 11.23489746 5.09765625 10.19140625 C4.54601807 9.30654541 3.99437988 8.42168457 3.42602539 7.51000977 C2.03525198 5.06204856 0.97739931 2.63687716 0 0 Z " fill="#F8F7F8" transform="translate(825,745)"/>
<path d="M0 0 C7.92 0 15.84 0 24 0 C24 36.3 24 72.6 24 110 C15.75 110 7.5 110 -1 110 C-1.02254812 95.80543617 -1.0409134 81.61088414 -1.05181217 67.4163065 C-1.05704172 60.82595215 -1.06414067 54.23561063 -1.07543945 47.64526367 C-1.08626578 41.29107982 -1.09227629 34.93690835 -1.09487724 28.58271599 C-1.09673195 26.15250389 -1.10035343 23.72229251 -1.10573006 21.29208565 C-1.11293711 17.90117019 -1.11399108 14.51030659 -1.11352539 11.11938477 C-1.11712067 10.10374954 -1.12071594 9.08811432 -1.12442017 8.04170227 C-1.1230455 7.12318481 -1.12167084 6.20466736 -1.12025452 5.25831604 C-1.12117631 4.45543435 -1.1220981 3.65255266 -1.12304783 2.82534122 C-1 1 -1 1 0 0 Z " fill="#F2F2F2" transform="translate(153,745)"/>
<path d="M0 0 C1.93166016 0.01740234 1.93166016 0.01740234 3.90234375 0.03515625 C5.19269531 0.04417969 6.48304688 0.05320312 7.8125 0.0625 C8.81152344 0.07410156 9.81054688 0.08570313 10.83984375 0.09765625 C11.36304199 1.1242334 11.88624023 2.15081055 12.42529297 3.20849609 C14.41633703 7.11299761 16.41169974 11.0152798 18.40820312 14.91699219 C19.26252478 16.58796362 20.11576062 18.25949076 20.96777344 19.93164062 C26.05212657 29.90803094 31.24179516 39.79689103 36.79904175 49.51986694 C39.83984375 54.88833093 39.83984375 54.88833093 39.83984375 57.09765625 C35.21984375 57.09765625 30.59984375 57.09765625 25.83984375 57.09765625 C20.83984375 47.34765625 20.83984375 47.34765625 20.83984375 45.09765625 C9.28984375 45.09765625 -2.26015625 45.09765625 -14.16015625 45.09765625 C-14.82015625 47.07765625 -15.48015625 49.05765625 -16.16015625 51.09765625 C-17.47265625 54.47265625 -17.47265625 54.47265625 -20.16015625 57.09765625 C-24.53447519 57.61802133 -28.77597634 57.43977434 -33.16015625 57.09765625 C-31.69814022 52.08169699 -29.51523586 47.89280996 -26.91015625 43.41015625 C-20.37555019 32.03720947 -14.24183265 20.47615247 -8.22070312 8.82421875 C-7.70958984 7.839375 -7.19847656 6.85453125 -6.671875 5.83984375 C-6.21256592 4.95151855 -5.75325684 4.06319336 -5.2800293 3.14794922 C-3.6217459 0.11192045 -3.6217459 0.11192045 0 0 Z " fill="#EF0172" transform="translate(584.16015625,901.90234375)"/>
<path d="M0 0 C4.29 0 8.58 0 13 0 C13 7.26 13 14.52 13 22 C22.87572756 20.12169098 22.87572756 20.12169098 29.625 14.3125 C30.72582547 13.22841774 31.82738662 12.14508202 32.9296875 11.0625 C33.45143555 10.53785156 33.97318359 10.01320313 34.51074219 9.47265625 C36.51247283 7.49323998 38.61635324 5.64789506 40.75 3.8125 C42.9226867 1.95728228 42.9226867 1.95728228 45 0 C47.86267567 -0.07325168 50.700719 -0.09238205 53.5625 -0.0625 C54.36880859 -0.05798828 55.17511719 -0.05347656 56.00585938 -0.04882812 C58.00393756 -0.03700518 60.00197783 -0.01906914 62 0 C59.71040553 2.95447671 57.47579077 5.64384267 54.625 8.0625 C53.60019531 8.93648437 53.60019531 8.93648437 52.5546875 9.828125 C51.71164062 10.54484375 50.86859375 11.2615625 50 12 C48.83498722 13.0145348 47.67100365 14.03025217 46.5078125 15.046875 C45.25537953 16.13561364 44.00277441 17.22415426 42.75 18.3125 C42.14752441 18.84045166 41.54504883 19.36840332 40.92431641 19.91235352 C38.08825585 22.3616067 35.51135841 24.5659056 32 26 C34.66226978 29.41103315 37.33483934 32.38585392 40.62890625 35.1953125 C45.17149183 39.12393681 49.56352598 43.19783743 53.9375 47.3125 C54.70384766 48.02728516 55.47019531 48.74207031 56.25976562 49.47851562 C56.98744141 50.16236328 57.71511719 50.84621094 58.46484375 51.55078125 C59.120896 52.16606689 59.77694824 52.78135254 60.45288086 53.4152832 C62 55 62 55 63 57 C48.37093001 58.5273971 48.37093001 58.5273971 42.92578125 55.01953125 C40.45198302 52.45252869 38.2275922 49.78143596 36 47 C34.61509091 45.71490418 33.20028265 44.46083636 31.75 43.25 C29.26244259 41.15965735 27.16488414 39.03352136 25.0625 36.5625 C21.51512116 33.03741605 21.51512116 33.03741605 13 34 C13 41.92 13 49.84 13 58 C8.71 58 4.42 58 0 58 C0 38.86 0 19.72 0 0 Z " fill="#EB0172" transform="translate(846,902)"/>
<path d="M0 0 C3.96 0 7.92 0 12 0 C12 7.59 12 15.18 12 23 C24.54 23 37.08 23 50 23 C50 15.41 50 7.82 50 0 C53.96 0 57.92 0 62 0 C62 18.81 62 37.62 62 57 C58.04 57 54.08 57 50 57 C50 49.08 50 41.16 50 33 C37.46 33 24.92 33 12 33 C12 40.92 12 48.84 12 57 C8.04 57 4.08 57 0 57 C0 38.19 0 19.38 0 0 Z " fill="#F10274" transform="translate(408,902)"/>
<path d="M0 0 C0.88731812 -0.00145523 1.77463623 -0.00291046 2.68884277 -0.00440979 C4.55805762 -0.0027556 6.42728676 0.00875175 8.29638672 0.02954102 C11.14740217 0.05850387 13.99655672 0.0501382 16.84765625 0.03710938 C18.66927981 0.0433474 20.49089754 0.05173884 22.3125 0.0625 C23.15953491 0.05956436 24.00656982 0.05662872 24.87927246 0.05360413 C29.86824456 0.1326035 33.34000346 0.72776236 37.65625 3.49609375 C40.64748659 6.95963086 41.60960558 8.77310524 41.90625 13.37109375 C41.82375 14.40234375 41.74125 15.43359375 41.65625 16.49609375 C38.02625 16.49609375 34.39625 16.49609375 30.65625 16.49609375 C30.65625 15.50609375 30.65625 14.51609375 30.65625 13.49609375 C27.10197423 12.31133516 23.87762922 12.35263657 20.1796875 12.36328125 C19.45383453 12.36232452 18.72798157 12.3613678 17.98013306 12.36038208 C16.44866855 12.35970241 14.91720114 12.36154186 13.38574219 12.36572266 C11.03313799 12.37108944 8.68072338 12.36576259 6.328125 12.359375 C4.84114541 12.36003552 3.35416594 12.36131613 1.8671875 12.36328125 C1.15992523 12.36125702 0.45266296 12.35923279 -0.27603149 12.35714722 C-3.59300708 12.08438319 -3.59300708 12.08438319 -6.34375 13.49609375 C-6.56184756 17.75357801 -6.52954161 22.01655099 -6.52905273 26.27905273 C-6.53123743 28.42126375 -6.54938512 30.56295846 -6.56835938 32.70507812 C-6.57129359 34.06119615 -6.5732782 35.41731663 -6.57421875 36.7734375 C-6.58038208 38.63343384 -6.58038208 38.63343384 -6.58666992 40.53100586 C-6.65586805 43.61531445 -6.65586805 43.61531445 -4.34375 45.49609375 C-1.07174361 45.80876231 -1.07174361 45.80876231 2.78125 45.76171875 C3.83530029 45.76458893 3.83530029 45.76458893 4.91064453 45.76751709 C6.39681354 45.7688785 7.88299445 45.76518507 9.36914062 45.75683594 C11.64740646 45.74613529 13.92488377 45.75673214 16.203125 45.76953125 C17.64583508 45.76820965 19.08854466 45.76564724 20.53125 45.76171875 C21.84867188 45.75946289 23.16609375 45.75720703 24.5234375 45.75488281 C27.7555913 45.82774814 27.7555913 45.82774814 29.65625 43.49609375 C30.2987735 41.42735341 30.2987735 41.42735341 30.65625 39.49609375 C34.87503192 39.29987134 37.82635894 39.69379207 41.65625 41.49609375 C41.71935015 45.55253173 41.74980481 49.12985304 39.13671875 52.39453125 C33.59247531 57.18008875 29.03786966 57.67098706 21.82421875 57.734375 C20.52016838 57.74648262 20.52016838 57.74648262 19.18977356 57.75883484 C17.34976183 57.77266176 15.50972459 57.78339014 13.66967773 57.79125977 C10.86457381 57.80846602 8.06065084 57.85236295 5.25585938 57.89648438 C3.46615448 57.90661246 1.67643959 57.9151282 -0.11328125 57.921875 C-0.94785355 57.93938309 -1.78242584 57.95689117 -2.64228821 57.97492981 C-8.0207978 57.95502932 -11.15495074 57.17607002 -15.34375 53.49609375 C-19.45761937 48.71659413 -19.93929799 45.05887868 -19.875 39.02734375 C-19.8788269 38.22880981 -19.88265381 37.43027588 -19.88659668 36.60754395 C-19.88930711 34.92666353 -19.88200688 33.24574032 -19.86523438 31.56494141 C-19.84381 29.00326829 -19.86506321 26.44439919 -19.890625 23.8828125 C-19.88798157 22.24348344 -19.88285626 20.60415612 -19.875 18.96484375 C-19.88309692 18.20530396 -19.89119385 17.44576416 -19.89953613 16.66320801 C-19.809496 11.51481101 -18.80993716 8.5231152 -15.34375 4.49609375 C-10.36999245 0.12310417 -6.31587465 -0.08376561 0 0 Z " fill="#EF0273" transform="translate(722.34375,901.50390625)"/>
<path d="M0 0 C0 3.3 0 6.6 0 10 C-7.02107495 10.02509319 -14.04212267 10.04304193 -21.06323242 10.05493164 C-23.44181779 10.05989871 -25.82040021 10.06667463 -28.19897461 10.07543945 C-31.65739682 10.08784569 -35.11577802 10.09330445 -38.57421875 10.09765625 C-39.60326828 10.10281754 -40.63231781 10.10797882 -41.69255066 10.11329651 C-49.29321193 10.11384878 -56.85530919 9.78936538 -64.44360924 9.40419197 C-75.7759622 8.84073818 -87.11537018 8.55307635 -98.45703125 8.24609375 C-100.82598872 8.18044371 -103.19494107 8.11460871 -105.56388855 8.04859924 C-111.72357315 7.87744914 -117.88332286 7.70876908 -124.04309082 7.54064941 C-130.35884759 7.36781951 -136.67453776 7.19259005 -142.99023438 7.01757812 C-155.32675983 6.67607129 -167.6633556 6.33718065 -180 6 C-180 5.34 -180 4.68 -180 4 C-168.16458496 3.62322426 -156.32908508 3.24923147 -144.49348354 2.87835789 C-138.99179035 2.70588171 -133.49012528 2.53260686 -127.98852539 2.35717773 C-104.52567963 1.6096791 -81.06314866 0.91405832 -57.59375 0.40625 C-56.6460417 0.3852379 -55.6983334 0.36422581 -54.72190666 0.34257698 C-36.48083281 -0.05720347 -18.24461922 -0.11314762 0 0 Z " fill="#DC0270" transform="translate(333,925)"/>
<path d="M0 0 C26.99917404 -0.27122267 53.95267479 0.10442459 80.9375 0.9375 C81.65250797 0.95938133 82.36751595 0.98126266 83.10419083 1.00380707 C98.04177714 1.46147458 112.97485593 1.97658306 127.9041748 2.65768433 C137.91178544 3.10429624 147.92283073 3.33942572 157.9375 3.5625 C159.80794763 3.60590804 161.67839038 3.64952736 163.54882812 3.69335938 C168.03249996 3.79798692 172.51622643 3.89983093 177 4 C177 4.66 177 5.32 177 6 C162.1254357 6.492955 147.25042346 6.9711851 132.375 7.4375 C131.26592159 7.47227573 130.15684319 7.50705147 129.01415634 7.54288101 C96.94920705 8.54432046 64.89138538 9.33269921 32.8125 9.6875 C31.54055408 9.70158464 31.54055408 9.70158464 30.24291229 9.71595383 C20.16206569 9.82620927 10.08114965 9.9219139 0 10 C0 6.7 0 3.4 0 0 Z " fill="#EB027A" transform="translate(977,925)"/>
<path d="M0 0 C23.30319199 -0.27607901 46.51070912 0.22005125 69.79345703 1.21386719 C84.08969953 1.82217491 98.38194253 2.30031332 112.6875 2.625 C113.58119293 2.64537323 114.47488586 2.66574646 115.3956604 2.68673706 C120.26366767 2.79660144 125.13175941 2.90103403 130 3 C130 3.66 130 4.32 130 5 C114.01695368 5.78897537 98.06282474 6.10869903 82.0625 6.125 C81.1946286 6.12749756 80.3267572 6.12999512 79.43258667 6.13256836 C76.94590246 6.13845268 74.45934179 6.1369761 71.97265625 6.1328125 C70.85239548 6.13578842 70.85239548 6.13578842 69.70950317 6.13882446 C66.33377094 6.12369324 63.22680423 6.05654101 60 5 C60 4.34 60 3.68 60 3 C30.3 2.01 30.3 2.01 0 1 C0 0.67 0 0.34 0 0 Z " fill="#B90060" transform="translate(1024,926)"/>
<path d="M0 0 C3.62031646 3.19581032 5.67434089 6.77310145 7.75 11.0625 C8.06582031 11.68705078 8.38164063 12.31160156 8.70703125 12.95507812 C10.12312735 15.82711718 11 17.75644392 11 21 C4.07 21 -2.86 21 -10 21 C-9.21581898 17.07909491 -8.79952725 15.24425143 -6.93359375 12.01171875 C-6.53076172 11.30595703 -6.12792969 10.60019531 -5.71289062 9.87304688 C-5.29201172 9.15181641 -4.87113281 8.43058594 -4.4375 7.6875 C-4.01275391 6.94693359 -3.58800781 6.20636719 -3.15039062 5.44335938 C-2.10648347 3.62531882 -1.05407808 1.81216252 0 0 Z " fill="#0D0105" transform="translate(587,915)"/>
<path d="M0 0 C4.56248659 -0.02906612 9.1249493 -0.04682113 13.6875 -0.0625 C14.98107422 -0.07087891 16.27464844 -0.07925781 17.60742188 -0.08789062 C19.47817383 -0.09272461 19.47817383 -0.09272461 21.38671875 -0.09765625 C22.53358154 -0.10289307 23.68044434 -0.10812988 24.86206055 -0.11352539 C28 0 28 0 30.39282227 0.49780273 C34.03194895 1.19877507 37.63710489 1.14266267 41.328125 1.1328125 C42.11773621 1.13376923 42.90734741 1.13472595 43.72088623 1.13571167 C45.3816333 1.13638973 47.04238308 1.13456163 48.703125 1.13037109 C51.25526798 1.12498889 53.80723726 1.13034331 56.359375 1.13671875 C57.97395872 1.13605846 59.58854234 1.13477832 61.203125 1.1328125 C62.35303925 1.13584885 62.35303925 1.13584885 63.52618408 1.13894653 C67.05654429 1.44903515 67.05654429 1.44903515 70 0 C71.85369611 -0.08737645 73.71067541 -0.10698153 75.56640625 -0.09765625 C76.69111328 -0.09443359 77.81582031 -0.09121094 78.97460938 -0.08789062 C80.15861328 -0.07951172 81.34261719 -0.07113281 82.5625 -0.0625 C83.75037109 -0.05798828 84.93824219 -0.05347656 86.16210938 -0.04882812 C89.10812226 -0.03699675 92.05403681 -0.02051287 95 0 C95 0.66 95 1.32 95 2 C95.99 2.66 96.98 3.32 98 4 C76.38079059 4.14402466 54.81415091 3.79273 33.2076416 3.07287598 C29.43802758 2.94843807 25.66822442 2.83000109 21.8984375 2.7109375 C14.59877005 2.47956296 7.29932419 2.24198804 0 2 C0 1.34 0 0.68 0 0 Z " fill="#B3015D" transform="translate(153,929)"/>
<path d="M0 0 C0 0.33 0 0.66 0 1 C-1.11560303 1.02505615 -2.23120605 1.0501123 -3.38061523 1.07592773 C-7.5049259 1.16983421 -11.6290615 1.27009514 -15.75317383 1.37231445 C-17.5408927 1.415727 -19.32865474 1.45739729 -21.11645508 1.49731445 C-23.68063391 1.5548646 -26.24459412 1.61860203 -28.80859375 1.68359375 C-29.6127623 1.70030624 -30.41693085 1.71701874 -31.24546814 1.73423767 C-34.92669998 1.49220696 -34.92669998 1.49220696 -38 3 C-40.60785073 3.1010647 -43.18862044 3.13969959 -45.796875 3.1328125 C-46.97555145 3.13424759 -46.97555145 3.13424759 -48.17803955 3.13571167 C-49.84590739 3.13639375 -51.51377785 3.13453755 -53.18164062 3.13037109 C-55.72532196 3.12505161 -58.26882441 3.13030031 -60.8125 3.13671875 C-62.43229206 3.13605741 -64.052084 3.13477511 -65.671875 3.1328125 C-66.43038757 3.13483673 -67.18890015 3.13686096 -67.97039795 3.13894653 C-71.77161079 3.12223849 -75.3046268 2.91791831 -79 2 C-79 1.67 -79 1.34 -79 1 C-52.66572537 -0.10300627 -26.35358751 -0.10986295 0 0 Z " fill="#F90081" transform="translate(260,928)"/>
<path d="M0 0 C0.91644287 0.00523682 1.83288574 0.01047363 2.77709961 0.01586914 C3.76645508 0.0190918 4.75581055 0.02231445 5.77514648 0.02563477 C6.81606445 0.03401367 7.85698242 0.04239258 8.92944336 0.05102539 C10.49662109 0.05779297 10.49662109 0.05779297 12.09545898 0.06469727 C14.68600996 0.07652627 17.27644895 0.0930085 19.86694336 0.11352539 C19.86694336 0.77352539 19.86694336 1.43352539 19.86694336 2.11352539 C21.18694336 2.44352539 22.50694336 2.77352539 23.86694336 3.11352539 C19.36194558 4.38645511 15.01980478 4.33545383 10.36694336 4.36352539 C9.51229492 4.38415039 8.65764648 4.40477539 7.77709961 4.42602539 C1.46910148 4.46538887 1.46910148 4.46538887 -1.72680664 2.59790039 C-2.19086914 2.10805664 -2.65493164 1.61821289 -3.13305664 1.11352539 C-2.13305664 0.11352539 -2.13305664 0.11352539 0 0 Z " fill="#D2016A" transform="translate(1064.133056640625,928.886474609375)"/>
<path d="M0 0 C0.598125 0.20625 1.19625 0.4125 1.8125 0.625 C-2.9375 5.5 -2.9375 5.5 -5.1875 6.625 C-5.375 4.25 -5.375 4.25 -5.1875 1.625 C-2.1875 -0.375 -2.1875 -0.375 0 0 Z " fill="#EB028F" transform="translate(764.1875,277.375)"/>
<path d="M0 0 C-1.50139512 4.20390632 -4.17275043 5.89110738 -8 8 C-8.99 7.67 -9.98 7.34 -11 7 C-9.54634731 5.82750647 -8.08692581 4.66216184 -6.625 3.5 C-5.40683594 2.52546875 -5.40683594 2.52546875 -4.1640625 1.53125 C-2 0 -2 0 0 0 Z " fill="#EA0275" transform="translate(526,564)"/>
<path d="M0 0 C0.66 0.66 1.32 1.32 2 2 C-2.455 4.97 -2.455 4.97 -7 8 C-7 7.01 -7 6.02 -7 5 C-5.46875 3.61328125 -5.46875 3.61328125 -3.5 2.3125 C-2.8503125 1.87550781 -2.200625 1.43851563 -1.53125 0.98828125 C-1.0259375 0.66214844 -0.520625 0.33601562 0 0 Z " fill="#DB016C" transform="translate(573,528)"/>
<path d="M0 0 C0.66 0 1.32 0 2 0 C1.88648483 1.81325551 1.75887039 3.62563357 1.625 5.4375 C1.55539062 6.44683594 1.48578125 7.45617187 1.4140625 8.49609375 C1.27742187 9.32238281 1.14078125 10.14867187 1 11 C0.01 11.495 0.01 11.495 -1 12 C-1.02687279 10.18757948 -1.04633715 8.37504767 -1.0625 6.5625 C-1.07410156 5.55316406 -1.08570313 4.54382813 -1.09765625 3.50390625 C-1 1 -1 1 0 0 Z " fill="#F3018E" transform="translate(760,354)"/>
<path d="M0 0 C0.66 0.66 1.32 1.32 2 2 C-5.11389522 7.55580866 -5.11389522 7.55580866 -10 8 C-6.88983545 4.71211176 -3.98381075 2.16264012 0 0 Z " fill="#E30270" transform="translate(503,580)"/>
<path d="M0 0 C0 0.99 0 1.98 0 3 C-3.15830185 6.06806466 -5.61999924 7.49942848 -10 8 C-6.88983545 4.71211176 -3.98381075 2.16264012 0 0 Z " fill="#DB006E" transform="translate(514,572)"/>
<path d="M0 0 C0.66 0 1.32 0 2 0 C2.33 1.32 2.66 2.64 3 4 C-1.62 4 -6.24 4 -11 4 C-11 3.67 -11 3.34 -11 3 C-10.28972656 2.95101562 -9.57945312 2.90203125 -8.84765625 2.8515625 C-7.46900391 2.73941406 -7.46900391 2.73941406 -6.0625 2.625 C-5.14597656 2.55539062 -4.22945312 2.48578125 -3.28515625 2.4140625 C-2.15400391 2.20910156 -2.15400391 2.20910156 -1 2 C-0.67 1.34 -0.34 0.68 0 0 Z " fill="#D2016E" transform="translate(621,955)"/>
<path d="M0 0 C0.33 0 0.66 0 1 0 C0.91291331 1.45945288 0.80473093 2.91765868 0.6875 4.375 C0.62949219 5.18710937 0.57148437 5.99921875 0.51171875 6.8359375 C0 9 0 9 -3 11 C-2.53199289 6.94393835 -2.12046792 3.53411321 0 0 Z " fill="#C80163" transform="translate(763,943)"/>
<path d="M0 0 C1.32 1.32 2.64 2.64 4 4 C3.67 4.99 3.34 5.98 3 7 C2.01 6.34 1.02 5.68 0 5 C-0.66 5 -1.32 5 -2 5 C-1.34 3.35 -0.68 1.7 0 0 Z " fill="#25000E" transform="translate(587,915)"/>
<path d="M0 0 C0.33 1.32 0.66 2.64 1 4 C0.34 4 -0.32 4 -1 4 C-1.66 6.31 -2.32 8.62 -3 11 C-3.99 10.67 -4.98 10.34 -6 10 C-4.02 6.7 -2.04 3.4 0 0 Z " fill="#E2016C" transform="translate(1008,836)"/>
<path d="M0 0 C1.13732426 3.40401948 0.83989957 5.77456664 0.0625 9.25 C-0.13214844 10.14203125 -0.32679688 11.0340625 -0.52734375 11.953125 C-0.68332031 12.62859375 -0.83929687 13.3040625 -1 14 C-1.33 14 -1.66 14 -2 14 C-2 9.71 -2 5.42 -2 1 C-1.34 0.67 -0.68 0.34 0 0 Z " fill="#F30191" transform="translate(761,312)"/>
<path d="M0 0 C0.66 0.33 1.32 0.66 2 1 C1.67 1.99 1.34 2.98 1 4 C-1.06640625 4.94921875 -1.06640625 4.94921875 -3.5625 5.6875 C-4.38878906 5.93886719 -5.21507812 6.19023438 -6.06640625 6.44921875 C-6.70449219 6.63097656 -7.34257812 6.81273437 -8 7 C-5.4837822 4.39391727 -2.94865641 2.10618315 0 0 Z " fill="#252424" transform="translate(500,541)"/>
<path d="M0 0 C0 0.99 0 1.98 0 3 C-2.8125 4.5625 -2.8125 4.5625 -6 6 C-6.99 5.67 -7.98 5.34 -9 5 C-7.87926138 4.16094435 -6.75325453 3.32892169 -5.625 2.5 C-4.99851562 2.0359375 -4.37203125 1.571875 -3.7265625 1.09375 C-2 0 -2 0 0 0 Z " fill="#DA0172" transform="translate(837,444)"/>
<path d="M0 0 C0.33 0.66 0.66 1.32 1 2 C-0.59617578 5.83082186 -1.49984971 7.66656647 -5 10 C-3.66511872 6.40608886 -2.03977277 3.24509304 0 0 Z " fill="#CCCACC" transform="translate(921,797)"/>
<path d="M0 0 C3.29148243 1.13499394 3.9959869 1.99283376 5.75 5.125 C6.1625 6.07375 6.575 7.0225 7 8 C6.01 7.67 5.02 7.34 4 7 C4 6.34 4 5.68 4 5 C3.01 4.67 2.02 4.34 1 4 C0.3125 1.9375 0.3125 1.9375 0 0 Z " fill="#E30171" transform="translate(1097,768)"/>
<path d="M0 0 C0 3 0 3 -1.1875 4.625 C-3.41406801 6.31412056 -5.25851328 6.62952882 -8 7 C-5.42215154 4.35247996 -3.08351902 2.05567935 0 0 Z " fill="#E20175" transform="translate(726,412)"/>
<path d="M0 0 C1.98 0 3.96 0 6 0 C5.01 0.33 4.02 0.66 3 1 C3 1.66 3 2.32 3 3 C2.34 3 1.68 3 1 3 C0.67 3.99 0.34 4.98 0 6 C-0.66 5.67 -1.32 5.34 -2 5 C-1.34 3.35 -0.68 1.7 0 0 Z " fill="#B90059" transform="translate(753,941)"/>
</svg>
